<svg version="1.1" id="Layer_1" xmlns="http://www.w3.org/2000/svg" xmlns:xlink="http://www.w3.org/1999/xlink" x="0px" y="0px"
	 width="100%" viewBox="0 0 1024 1024" enable-background="new 0 0 1024 1024" xml:space="preserve">
<path fill="#000000" opacity="1.000000" stroke="none" 
	d="
M649.303955,839.400269 
	C629.234863,846.481140 608.870178,850.432434 588.245789,853.437744 
	C564.482483,856.900452 540.576599,858.359802 516.624329,858.700500 
	C495.992981,858.993958 475.379761,857.866943 454.829926,855.671997 
	C434.791412,853.531616 414.936432,850.442200 395.462433,845.212646 
	C377.231262,840.316772 359.484161,834.320740 343.836945,823.207764 
	C333.769287,816.057617 327.401367,806.764404 323.647064,794.987671 
	C308.332367,746.947205 293.110901,698.878784 278.355927,650.663513 
	C273.438965,634.596191 268.578522,618.510132 263.886536,602.376160 
	C262.827637,598.735046 261.171753,595.733704 258.573730,592.983032 
	C241.380600,574.779297 232.068359,553.131775 231.930191,528.068542 
	C231.814896,507.155121 238.269760,488.176208 251.054565,471.408539 
	C260.446747,459.090393 271.557312,448.641052 284.351776,440.006317 
	C288.337585,437.316376 290.388184,434.402313 289.599640,429.322479 
	C286.142059,407.048706 293.762787,388.408234 308.979675,372.475708 
	C321.704803,359.152130 337.026947,349.563141 353.642456,341.881927 
	C359.524780,339.162506 359.514740,339.118652 356.267822,333.764069 
	C347.478577,319.269501 340.958618,303.951172 338.049561,287.099457 
	C329.895538,239.863815 356.053314,194.170197 402.126465,179.445862 
	C442.155304,166.653214 477.258240,176.117416 507.070587,205.553223 
	C512.620117,211.032684 512.587952,211.133881 517.983704,205.424561 
	C538.237915,183.992966 563.409668,173.466965 592.574829,173.914673 
	C638.152405,174.614304 677.727905,204.624054 687.436523,250.636108 
	C692.864685,276.361816 687.997437,300.940979 675.729431,324.078979 
	C673.173889,328.898895 670.368042,333.586151 667.491943,338.662292 
	C674.154053,342.175262 680.584290,345.252136 686.703003,348.857544 
	C699.534180,356.418365 711.333801,365.232971 720.795532,376.991119 
	C733.468994,392.740479 739.265503,410.359009 736.103638,430.507812 
	C735.470337,434.543274 736.675659,436.799255 739.929871,439.160767 
	C757.215942,451.704926 772.657288,466.203339 782.726685,485.306641 
	C800.313416,518.671509 798.279907,551.800659 775.811462,581.544067 
	C764.582947,596.408142 759.160461,612.544617 754.028076,629.485352 
	C745.535583,657.516296 737.057922,685.552429 728.394409,713.530762 
	C720.222351,739.922058 711.375427,766.112976 703.677490,792.639343 
	C698.796021,809.460510 687.792847,820.360352 673.343994,828.664734 
	C665.825928,832.985657 657.917358,836.529297 649.303955,839.400269 
M326.589478,447.889893 
	C333.059570,459.210052 341.986450,468.420227 351.994965,476.536346 
	C386.650726,504.639526 426.876007,520.740234 469.898254,530.677063 
	C490.521759,535.440491 511.450378,538.291138 532.460266,540.680542 
	C539.983643,541.536194 545.517029,548.372620 545.123474,555.629089 
	C544.724792,562.980713 538.690369,569.078064 531.140625,569.364319 
	C526.321777,569.546936 521.443481,569.606995 516.661560,569.084106 
	C485.310028,565.655823 454.468170,559.663635 424.645508,549.237976 
	C377.804504,532.862915 334.026703,511.692688 303.930481,469.821625 
	C302.157593,467.355133 300.590820,467.384705 298.139893,468.995789 
	C293.666748,471.936218 289.364075,475.086304 285.443329,478.693146 
	C273.080231,490.066498 263.992065,503.449951 262.325165,520.595642 
	C259.931335,545.219177 270.966980,563.857422 290.010590,578.108337 
	C305.402710,589.626892 323.259766,596.244873 341.508820,601.808167 
	C370.601562,610.677246 400.524658,615.091003 430.606079,618.863892 
	C459.756378,622.519958 489.055145,623.465332 518.336975,623.366150 
	C547.454224,623.267517 576.548523,621.519470 605.498047,617.816650 
	C639.109131,613.517578 672.300659,607.446960 704.055420,595.252380 
	C720.008240,589.126038 735.141174,581.384705 746.953491,568.520386 
	C763.151123,550.880249 769.278198,525.983337 757.680542,502.388672 
	C750.872803,488.538696 740.466919,478.093414 728.479370,468.759460 
	C722.297485,463.945984 717.729004,463.090820 710.238342,467.745392 
	C688.776306,481.081451 664.239624,483.949005 639.588318,483.888031 
	C613.786804,483.824219 588.688538,478.674011 564.285583,470.184601 
	C521.666138,455.358032 483.603333,431.385956 444.239532,410.100037 
	C423.232788,398.740692 404.606415,383.705048 387.165222,367.331024 
	C385.060150,365.354797 383.141693,363.701233 379.724670,365.103424 
	C366.125702,370.683807 352.835236,376.842133 340.815369,385.384979 
	C332.564209,391.249268 325.396729,398.231750 321.688080,407.938293 
	C316.402649,421.771667 319.338409,434.761597 326.589478,447.889893 
M507.870514,262.014832 
	C501.145477,259.763733 497.895386,254.474106 496.146149,248.123688 
	C488.637512,220.864349 459.339417,200.020630 424.018738,205.794479 
	C383.527802,212.413483 362.440948,247.130692 370.897247,286.716095 
	C375.789307,309.616608 389.433960,327.355835 405.674500,343.350952 
	C435.131592,372.362885 469.928375,392.741302 508.637146,406.780945 
	C511.977936,407.992676 515.027710,407.992310 518.339600,406.899170 
	C564.542236,391.649292 603.657288,365.821472 634.681519,328.248322 
	C647.005310,313.323059 655.340271,296.088867 656.471863,276.580841 
	C659.226196,229.100388 619.069092,194.948227 572.244873,207.643234 
	C553.541931,212.713989 539.479736,224.358643 531.413513,242.418137 
	C529.859070,245.898254 529.074524,249.726959 527.470886,253.179367 
	C523.818848,261.041656 517.107849,264.142883 507.870514,262.014832 
M540.729004,730.596924 
	C541.266663,723.633179 541.837830,716.671814 542.335327,709.705200 
	C543.531799,692.949951 544.677429,676.191101 545.881042,659.436401 
	C546.180176,655.272461 544.580750,653.311523 540.173340,653.330933 
	C522.020325,653.410828 503.865967,653.375732 485.713440,653.225342 
	C481.891846,653.193726 480.770050,654.801392 480.969849,658.360413 
	C481.566864,668.993225 481.875183,679.642761 482.516846,690.272461 
	C484.050354,715.675781 485.674011,741.073914 487.330902,766.469543 
	C488.565216,785.388123 489.977844,804.295227 491.140381,823.217957 
	C491.353729,826.690735 492.774231,827.825195 496.075958,827.799316 
	C505.732910,827.723572 515.391968,827.921570 525.048950,827.848694 
	C533.989502,827.781250 534.011780,827.669983 534.618469,818.610779 
	C534.685181,817.614563 534.639832,816.610779 534.708862,815.614807 
	C535.479309,804.500122 536.249329,793.385315 537.044556,782.272339 
	C538.254700,765.362244 539.484619,748.453552 540.729004,730.596924 
M408.718567,749.844666 
	C409.594330,754.078491 410.518158,758.302979 411.337524,762.547729 
	C414.710358,780.021301 418.021179,797.506897 421.438477,814.971741 
	C421.925568,817.461304 422.004791,820.097595 425.716858,820.784180 
	C435.048370,822.510132 444.385498,824.112000 453.857422,824.713257 
	C461.674103,825.209473 462.235291,824.230286 461.508118,816.361389 
	C460.084869,800.959473 458.888702,785.535095 457.756134,770.108398 
	C456.586792,754.180725 455.674316,738.234314 454.523804,722.305115 
	C452.989899,701.066895 451.273560,679.841858 449.766785,658.601807 
	C449.279877,651.737976 449.262299,651.161987 442.427460,650.587708 
	C426.338104,649.235901 410.363403,647.026306 394.383728,644.804688 
	C390.277069,644.233826 388.972168,645.768860 389.779480,650.017761 
	C392.789368,665.858948 395.872375,681.686279 398.871246,697.529541 
	C402.118225,714.683960 405.301941,731.850464 408.718567,749.844666 
M573.105469,711.307495 
	C572.113342,724.067749 571.157898,736.831055 570.121155,749.587646 
	C568.236511,772.775635 566.316833,795.960815 564.378601,819.144348 
	C564.025452,823.368652 565.527100,825.208801 570.070923,824.974365 
	C579.074524,824.509949 587.853699,822.572693 596.753784,821.514893 
	C602.632446,820.816101 604.724243,817.856384 605.725037,812.324707 
	C613.446777,769.642090 621.439819,727.008606 629.334656,684.357300 
	C631.481812,672.757812 633.633545,661.158691 635.663330,649.538452 
	C636.127563,646.880676 636.676819,644.004333 631.968079,644.819702 
	C615.582031,647.657227 599.047729,649.427673 582.509033,651.073975 
	C578.745178,651.448669 577.279663,653.062256 577.033386,656.658630 
	C575.807007,674.568115 574.471558,692.470215 573.105469,711.307495 
M587.370300,445.029205 
	C611.165466,452.313080 635.436279,455.390289 660.237793,452.597412 
	C672.371765,451.230988 684.172607,448.331512 694.462830,441.243317 
	C702.302368,435.843140 706.364990,428.462219 705.807861,418.756561 
	C705.243042,408.918762 700.382935,401.043762 694.206543,393.909058 
	C682.107605,379.932800 666.327332,371.597992 649.429993,364.893158 
	C645.148132,363.194153 642.372009,363.305206 638.928162,366.749512 
	C613.889526,391.791687 585.654541,412.368652 553.256775,426.988007 
	C551.958496,427.573883 550.302917,427.843231 549.935852,430.469818 
	C561.447327,436.683624 573.963196,440.892090 587.370300,445.029205 
M381.728668,766.595154 
	C381.374298,764.632019 381.036316,762.665771 380.663116,760.706238 
	C373.323242,722.168274 365.855896,683.653870 358.769287,645.069458 
	C357.708130,639.292053 355.288788,636.505127 349.605469,635.270691 
	C335.921448,632.298462 322.663513,627.806091 309.513336,623.004028 
	C307.501129,622.269226 305.257904,620.111084 303.128479,622.476685 
	C301.303375,624.504272 302.461243,626.874023 303.161682,629.100281 
	C319.199127,680.075378 335.395111,731.001648 351.121460,782.072510 
	C354.392365,792.694702 360.882202,799.678528 370.431335,804.273071 
	C375.066040,806.503113 379.968658,808.215515 384.839630,809.903625 
	C389.170990,811.404785 390.223358,810.325195 389.315918,805.657288 
	C386.839447,792.917847 384.327087,780.185425 381.728668,766.595154 
M658.024536,696.301270 
	C651.471191,731.441528 644.859863,766.571106 638.402283,801.729004 
	C636.626892,811.394958 637.256348,811.670349 646.725098,808.205627 
	C661.879578,802.660339 672.478394,793.417847 676.590759,776.858826 
	C680.555420,760.895020 686.173462,745.340393 691.103394,729.617920 
	C701.810974,695.469543 712.564880,661.335571 723.209351,627.167542 
	C723.835083,625.158997 725.670654,622.999451 723.658813,620.672302 
	C723.095398,620.672302 722.558411,620.534668 722.129822,620.692139 
	C705.717407,626.724976 689.231445,632.518616 672.145630,636.410828 
	C669.711914,636.965210 668.708191,638.619385 668.270447,641.014099 
	C664.951782,659.169128 661.546021,677.308350 658.024536,696.301270 
z"/>
</svg>